#N canvas 127 50 904 582 12;
#X obj 24 407 savepanel;
#X msg 24 454 open \$1;
#X msg 115 382 start;
#X msg 254 426 stop;
#X msg 487 357 print;
#X obj 12 6 cnv 15 300 60 empty empty empty 20 12 0 14 -233017 -66577
0;
#X text 13 11 CCLIB_MASTER_WRITESF.pd;
#X text 13 26 Abstraction for Streaming Output;
#X text 15 41 CCAMPBELL 52902;
#X obj 375 543 writesf~ 1 1.67772e+007;
#X obj 315 7 cnv 15 250 190 empty empty empty 20 12 0 14 -262131 -66577
0;
#X text 337 26 State 0 ---> closed;
#X text 356 38 send open fname message;
#X text 339 74 State 1 ---> open;
#X text 359 91 send start message or;
#X text 358 105 send another open message;
#X text 352 152 send stop message;
#X obj 623 308 cnv 15 200 60 empty empty empty 20 12 0 14 -261689 -66577
0;
#X text 635 311 send messages here for;
#X text 634 323 direct access;
#X text 340 138 State 2 ---> streaming;
#X obj 634 342 r cbWriteSF_Inlet;
#X symbolatom 24 293 20 0 0 0 - - -, f 20;
#X obj 622 150 outlet;
#X symbolatom 24 432 10 0 0 0 - - -, f 10;
#X obj 24 84 inlet;
#X text 75 85 inlet is always a bang;
#X obj 24 119 bng 30 250 50 0 empty empty empty 0 -6 0 8 -261681 -262131
-1;
#X obj 24 344 select 0-CLOSED 1-OPEN 2-STREAMING;
#X obj 622 241 cnv 15 100 60 empty empty empty 20 12 0 14 -225280 -66577
0;
#X obj 631 270 inlet~;
#X text 630 252 Audio Input;
#X obj 46 257 r cbWriteSF_State;
#X text 40 367 OPEN;
#X msg 697 145 \; cbWriteSF_State set \$1;
#X obj 651 119 r cbWriteSF_NewState;
#X text 651 92 update our state;
#X msg 24 480 \; cbWriteSF_NewState symbol 1-OPEN;
#X msg 254 449 \; cbWriteSF_NewState symbol 0-CLOSED;
#X msg 116 402 \; cbWriteSF_NewState symbol 2-STREAMING;
#X obj 26 549 print CCLIB_MASTER_WRITESF;
#X msg 26 519 OPENING \$1;
#X msg 608 542 \; cbWriteSF_NewState symbol 0-CLOSED;
#X obj 608 514 loadbang;
#X obj 24 367 bng 15 250 50 0 empty empty empty 0 -6 0 8 -262144 -1
-1;
#X obj 114 365 bng 15 250 50 0 empty empty empty 0 -6 0 8 -262144 -1
-1;
#X obj 203 365 bng 15 250 50 0 empty empty empty 0 -6 0 8 -262144 -1
-1;
#X text 129 363 START;
#X text 221 365 STOP;
#X text 29 160 UPDATE YE OLDE STATE;
#X connect 0 0 24 0;
#X connect 1 0 9 0;
#X connect 1 0 37 0;
#X connect 2 0 9 0;
#X connect 2 0 39 0;
#X connect 3 0 9 0;
#X connect 3 0 38 0;
#X connect 4 0 9 0;
#X connect 21 0 9 0;
#X connect 22 0 28 0;
#X connect 24 0 1 0;
#X connect 24 0 41 0;
#X connect 25 0 27 0;
#X connect 27 0 22 0;
#X connect 28 0 44 0;
#X connect 28 1 45 0;
#X connect 28 2 46 0;
#X connect 30 0 9 0;
#X connect 32 0 22 0;
#X connect 35 0 23 0;
#X connect 35 0 34 0;
#X connect 35 0 4 0;
#X connect 41 0 40 0;
#X connect 43 0 42 0;
#X connect 44 0 0 0;
#X connect 45 0 2 0;
#X connect 46 0 3 0;
