#N canvas 472 457 529 243 12;
#X obj 22 383 dac~;
#X obj 25 233 *~;
#X obj 73 181 dbtorms;
#X obj 80 105 pack 0 50;
#X obj 80 135 line~;
#X obj 24 334 clip~ -0.5 0.5;
#X msg 347 294 \; pd dsp \$1;
#X text 342 237 audio computation;
#X obj 72 212 pack 0 50;
#X obj 71 238 line~;
#X obj 178 133 + 1;
#X text 278 101 Mute - toggle reversed by setting checked = -1 and
adding 1;
#X text 231 204 Master Volume 0-100Db Normalized to rms 0 - 1;
#X text 167 237 TableOutput;
#X obj 170 259 r gtgl_view_output;
#X obj 168 295 metro 50;
#X msg 156 364 \; tblMasterOut xticks 0 5 10 \, yticks 0 0.25 1 \,
xlabel -1.1 0 25 50 75 100 128 \, ylabel -5 -1 -0.75 -0.5 -0.25 0.25
0.5 0.75 1;
#X obj 168 334 tabwrite~ tblMasterOut;
#X obj 347 261 r gtgl_audio_on-off;
#X obj 146 178 r ghsl_mastervol;
#X obj 177 103 r gtgl_mute;
#X obj 570 282 loadbang;
#X text 569 257 misc init;
#X obj 50 268 r gvsl_limiter;
#X obj 52 304 * -1;
#X obj 22 117 *~;
#X msg 570 312 \; gvsl_limiter_r 0.5 \; gtgl_mute 1 \, 0;
#X obj 21 68 inlet~;
#X text 15 12 SFTEST1 - derivative of CCLIB_MASTER_OUT.pd Abstraction
containing the implementation of the MASTER OUT controls.;
#X obj 74 364 r g_sfout;
#X obj 69 405 sfwrite~ 2;
#X connect 1 0 5 0;
#X connect 2 0 8 0;
#X connect 3 0 4 0;
#X connect 4 0 25 1;
#X connect 5 0 0 0;
#X connect 5 0 0 1;
#X connect 5 0 17 0;
#X connect 5 0 30 0;
#X connect 5 0 30 1;
#X connect 8 0 9 0;
#X connect 9 0 1 1;
#X connect 10 0 3 0;
#X connect 14 0 15 0;
#X connect 14 0 16 0;
#X connect 15 0 17 0;
#X connect 18 0 6 0;
#X connect 19 0 2 0;
#X connect 20 0 10 0;
#X connect 21 0 26 0;
#X connect 23 0 24 0;
#X connect 23 0 5 2;
#X connect 24 0 5 1;
#X connect 25 0 1 0;
#X connect 27 0 25 0;
#X connect 29 0 30 0;
