#N canvas 0 0 1008 704 12;
#X obj 30 72 inlet;
#X text 89 69 messages come in here;
#X obj 23 502 outlet~;
#X text 95 506 signal comes out here;
#X obj 304 506 outlet;
#X text 297 310 StartPos;
#X obj 473 508 outlet;
#X obj 749 245 table _x-CCRFILEBUF 256;
#X msg 68 148 \; _x-CCRFILEBUF const 0;
#X obj 68 275 soundfiler;
#X obj 626 509 outlet;
#X text 634 439 FileName;
#X floatatom 300 439 12 0 0;
#X floatatom 469 440 12 0 0;
#X symbolatom 626 466 64 0 0;
#X obj 68 188 bng 15 250 50 0 empty empty empty 20 8 0 8 -262144 -1
-1;
#X text 13 149 CLEAR;
#X text 17 178 LOAD;
#X obj 68 211 openpanel;
#X msg 68 242 read -resize \$1 _x-CCRFILEBUF;
#X text 471 348 Endpos;
#X msg 306 407 0;
#X text 371 123 PLAY;
#X obj 374 143 bng 15 250 50 0 empty empty empty 20 8 0 8 -262144 -1
-1;
#X obj 388 515 pack f f;
#X obj 372 171 lister;
#X obj 372 212 tabplay~ _x-CCRFILEBUF;
#X text 433 122 STOP;
#X msg 433 144 stop;
#X obj 299 335 inlet;
#X obj 469 375 inlet;
#X msg 299 364 set \$1;
#X msg 469 401 set \$1;
#X obj 757 507 bng 15 250 50 0 empty empty empty 20 8 0 8 -262144 -1
-1;
#X obj 757 527 outlet;
#X text 751 487 COMPLETED;
#X msg 621 414 symbol \$1;
#X text 517 124 RESIZE;
#X msg 518 147 \; _x-CCRFILEBUF resize \$1;
#X text 747 118 SHOW;
#X obj 749 138 bng 15 250 50 0 empty empty empty 20 8 0 8 -262144 -1
-1;
#X msg 749 171 click 1 1 1 1 1;
#X obj 68 106 route clear load play stop resize show;
#X text 762 224 THE BUFFER;
#X text 741 289 LABELS;
#X msg 738 420 \; _x-CCRFILEBUF xlabel -1.1 \$1 \$2;
#X msg 742 341 \; _x-CCRFILEBUF yticks 0 0.5 1 \, ylabel -10 -1 -0.5
0.5 1 \, xticks 0 44100 44100;
#X obj 79 347 t f f;
#X obj 741 309 loadbang;
#X text 31 5 CB: CCLIB_MASTER_RBUF.pd - first go at a read buffer abstraction.
;
#X obj 407 476 -;
#X connect 0 0 42 0;
#X connect 9 0 47 0;
#X connect 12 0 4 0;
#X connect 12 0 50 0;
#X connect 13 0 6 0;
#X connect 13 0 24 1;
#X connect 13 0 50 1;
#X connect 14 0 10 0;
#X connect 15 0 18 0;
#X connect 18 0 19 0;
#X connect 18 0 36 0;
#X connect 19 0 9 0;
#X connect 21 0 12 0;
#X connect 23 0 25 0;
#X connect 24 0 25 1;
#X connect 24 0 45 0;
#X connect 25 0 26 0;
#X connect 26 0 2 0;
#X connect 26 1 33 0;
#X connect 28 0 26 0;
#X connect 29 0 31 0;
#X connect 30 0 32 0;
#X connect 31 0 12 0;
#X connect 32 0 13 0;
#X connect 33 0 34 0;
#X connect 36 0 14 0;
#X connect 38 0 21 0;
#X connect 40 0 41 0;
#X connect 41 0 7 0;
#X connect 42 0 8 0;
#X connect 42 1 15 0;
#X connect 42 2 23 0;
#X connect 42 3 28 0;
#X connect 42 4 38 0;
#X connect 42 4 32 0;
#X connect 42 5 40 0;
#X connect 47 0 21 0;
#X connect 47 1 13 0;
#X connect 48 0 46 0;
#X connect 50 0 24 0;
