#N canvas 475 373 466 254 12;
#X text 18 15 CCLIB_FMMOD_ADD a simple FM modulator abstraction;
#X obj 74 121 +~;
#X obj 191 146 osc~;
#X obj 194 186 *~;
#X obj 295 143 r gf_modidx;
#X obj 189 98 +;
#X obj 293 89 r gf_modoffset;
#X obj 41 36 inlet;
#X floatatom 280 118 5 0 0;
#X floatatom 298 188 5 0 0;
#X floatatom 103 66 5 0 0;
#X obj 31 187 outlet~;
#X obj 190 57 t f f;
#X connect 1 0 11 0;
#X connect 2 0 3 0;
#X connect 3 0 1 0;
#X connect 4 0 3 1;
#X connect 4 0 9 0;
#X connect 5 0 2 0;
#X connect 6 0 5 1;
#X connect 6 0 8 0;
#X connect 7 0 10 0;
#X connect 7 0 12 0;
#X connect 12 0 5 0;
#X connect 12 1 1 1;
