#N canvas 307 177 556 407 12;
#X msg 312 56 clear;
#X msg 312 82 load;
#X floatatom 143 277 12 0 0;
#X floatatom 144 307 12 0 0;
#X symbolatom 144 340 50 0 0;
#X msg 313 109 play;
#X msg 313 135 stop;
#X text 249 273 START;
#X text 256 309 END;
#X obj 318 221 bng 15 250 50 0 empty empty empty 20 8 0 8 -262144 -1
-1;
#X text 339 221 DONE;
#X msg 316 185 show;
#X obj 22 77 inlet;
#X obj 23 272 outlet~;
#X text 15 16 CCLIB_MASTER_RBUF_Enh - this is a library patch for a
single "MASTER" ReadFileBuffer with controls built-in;
#X obj 23 223 CCLIB_MASTER_RBUF;
#X msg 315 160 resize \$1;
#X floatatom 411 162 5 0 0;
#X obj 23 300 outlet;
#X obj 24 331 outlet;
#X obj 24 358 outlet;
#X obj 25 384 outlet;
#X connect 0 0 15 0;
#X connect 1 0 15 0;
#X connect 2 0 15 1;
#X connect 3 0 15 2;
#X connect 5 0 15 0;
#X connect 6 0 15 0;
#X connect 11 0 15 0;
#X connect 12 0 15 0;
#X connect 15 0 13 0;
#X connect 15 1 2 0;
#X connect 15 1 18 0;
#X connect 15 2 3 0;
#X connect 15 2 19 0;
#X connect 15 3 4 0;
#X connect 15 3 20 0;
#X connect 15 4 9 0;
#X connect 15 4 21 0;
#X connect 16 0 15 0;
#X connect 17 0 16 0;
