#N canvas 97 -12 603 439 12;
#X obj 25 75 r \$1f_midiosc_note;
#X obj 204 76 r \$1f_midiosc_vel;
#X floatatom 204 111 5 0 0;
#X text 261 110 Velocity;
#X floatatom 26 143 5 0 0;
#X text 85 143 Freq;
#X obj 26 116 mtof;
#X obj 26 253 *~;
#X obj 204 153 * 0.007874;
#X obj 204 194 pack 0 100;
#X obj 203 222 line~;
#X floatatom 320 191 5 0 0;
#X text 298 156 this normalizes 0 - 127 to 0 - 1;
#X obj 23 207 osc~ 0;
#X obj 25 366 throw~ \$2;
#X obj 26 282 CCLIB_ADSR_IMPL;
#X text 5 9 CCLIB_MIDIOSC_ENV_FM Abstraction for a single oscillator.
Takes Midi Note value and Velocity as inputs via \$1f_midiosc_note
and \$1f_midiosc_vel. With ADSR support and FM.;
#X obj 29 176 CCLIB_FMMOD_ADD \$1;
#X connect 0 0 6 0;
#X connect 1 0 2 0;
#X connect 2 0 8 0;
#X connect 2 0 15 1;
#X connect 4 0 17 0;
#X connect 6 0 4 0;
#X connect 7 0 15 0;
#X connect 8 0 9 0;
#X connect 8 0 11 0;
#X connect 9 0 10 0;
#X connect 10 0 7 1;
#X connect 13 0 7 0;
#X connect 15 0 14 0;
#X connect 17 0 13 0;
