#N canvas 37 52 1010 656 12;
#X obj 30 72 inlet;
#X text 89 69 messages come in here;
#X obj 82 479 outlet;
#X obj 68 275 soundfiler;
#X obj 72 600 outlet;
#X text 0 539 FileName;
#X floatatom 71 393 12 0 0;
#X symbolatom 72 572 64 0 0;
#X obj 68 188 bng 15 250 50 0 empty empty empty 20 8 0 8 -262144 -1
-1;
#X text 13 149 CLEAR;
#X obj 408 226 bng 15 250 50 0 empty empty empty 20 8 0 8 -262144 -1
-1;
#X text 467 205 STOP;
#X msg 467 227 stop;
#X msg 72 545 symbol \$1;
#X text 9 332 RESIZE;
#X text 745 151 SHOW;
#X obj 747 171 bng 15 250 50 0 empty empty empty 20 8 0 8 -262144 -1
-1;
#X msg 747 204 click 1 1 1 1 1;
#X text 762 224 THE BUFFER;
#X text 741 289 LABELS;
#X obj 741 309 loadbang;
#X msg 69 340 \; _x-CCWFILEBUF resize \$1;
#X obj 749 245 table _x-CCWFILEBUF 256;
#X msg 742 341 \; _x-CCWFILEBUF yticks 0 0.5 1 \, ylabel -10 -1 -0.5
0.5 1 \, xticks 0 44100 44100;
#X text 13 186 SAVE;
#X msg 68 242 write -wave \$1 _x-CCWFILEBUF;
#X obj 68 211 savepanel;
#X obj 309 72 inlet~;
#X text 374 70 signal comes in here;
#X text 7 389 Length;
#X msg 88 430 \; _x-CCWFILEBUF xlabel -1.1 0 \$1;
#X obj 406 295 tabwrite~ _x-CCWFILEBUF;
#X text 405 206 RECORD;
#X msg 67 148 \; _x-CCWFILEBUF const 0;
#X obj 68 106 route clear save record stop resize show resizesec;
#X text 14 7 CB: CCLIB_MASTER_WBUF.pd - This is the first go at a writebuffer
abstraction. Assumes sample rate of 44.1khz;
#X obj 294 340 * 44100;
#X text 422 376 RECORDTIME;
#X obj 424 433 metro 100;
#X obj 422 536 outlet;
#X obj 424 473 float;
#X obj 489 474 + 0.1;
#X floatatom 499 512 5 0 0;
#X msg 423 404 1;
#X msg 472 403 0;
#X connect 0 0 34 0;
#X connect 6 0 2 0;
#X connect 6 0 30 0;
#X connect 7 0 4 0;
#X connect 8 0 26 0;
#X connect 10 0 31 0;
#X connect 10 0 43 0;
#X connect 12 0 31 0;
#X connect 12 0 44 0;
#X connect 13 0 7 0;
#X connect 16 0 17 0;
#X connect 17 0 22 0;
#X connect 20 0 23 0;
#X connect 25 0 3 0;
#X connect 26 0 25 0;
#X connect 26 0 13 0;
#X connect 27 0 31 0;
#X connect 34 0 33 0;
#X connect 34 1 8 0;
#X connect 34 2 10 0;
#X connect 34 3 12 0;
#X connect 34 4 21 0;
#X connect 34 4 6 0;
#X connect 34 5 16 0;
#X connect 34 6 36 0;
#X connect 36 0 21 0;
#X connect 38 0 40 0;
#X connect 40 0 41 0;
#X connect 40 0 42 0;
#X connect 40 0 39 0;
#X connect 41 0 40 1;
#X connect 43 0 38 0;
#X connect 44 0 38 0;
#X connect 44 0 40 1;
