#N canvas 357 431 458 308 12;
#X text 11 42 ccampbell 60202;
#X text 12 7 CCLIB_SEND_VUMETER.pd;
#X text 13 23 Abstraction to normalize input to send to a VUMETER;
#X obj 16 114 cnv 15 100 120 empty empty empty 20 12 0 14 -262131 -66577
0;
#X obj 19 145 env~;
#X obj 19 167 rmstodb;
#X obj 19 189 - 135;
#X text 23 119 vuMeter;
#X obj 19 81 inlet~;
#X obj 19 213 s \$1;
#X connect 4 0 5 0;
#X connect 5 0 6 0;
#X connect 6 0 9 0;
#X connect 8 0 4 0;
