#N canvas -5 298 702 443 12;
#X msg 312 56 clear;
#X floatatom 88 258 20 0 0;
#X symbolatom 23 384 50 0 0;
#X msg 313 135 stop;
#X msg 313 223 show;
#X text 15 16 CCLIB_MASTER_WBUF_Enh - this is a library patch for a
single "MASTER" WriteFileBuffer with controls built in;
#X msg 314 160 resize \$1;
#X floatatom 398 161 11 0 0;
#X msg 313 109 record;
#X text 198 259 LENGTH;
#X obj 22 77 inlet;
#X obj 23 223 CCLIB_MASTER_WBUF;
#X msg 312 82 save;
#X text 35 365 FILENAME;
#X obj 154 80 inlet~;
#X floatatom 424 193 11 0 0;
#X msg 313 192 resizesec \$1;
#X text 494 160 SAMPLES;
#X text 526 197 SECONDS;
#X obj 87 295 / 44100;
#X floatatom 168 295 10 0 0;
#X text 262 297 LENGTH IN SECONDS;
#X floatatom 84 340 5 0 0;
#X text 142 342 RECORDED IN SECONDS;
#X connect 0 0 11 0;
#X connect 3 0 11 0;
#X connect 4 0 11 0;
#X connect 6 0 11 0;
#X connect 7 0 6 0;
#X connect 8 0 11 0;
#X connect 10 0 11 0;
#X connect 11 0 2 0;
#X connect 11 1 1 0;
#X connect 11 1 19 0;
#X connect 11 2 22 0;
#X connect 12 0 11 0;
#X connect 14 0 11 1;
#X connect 15 0 16 0;
#X connect 16 0 11 0;
#X connect 19 0 20 0;
